<?xml version="1.0" encoding="UTF-8"?>
<svg width="800" height="400" version="1.1" viewBox="0 0 800 400" xmlns="http://www.w3.org/2000/svg">
  <rect width="800" height="400" fill="#f5f5f5"/>
  <g fill="#999">
    <path d="M400 140c-22.1 0-40 17.9-40 40s17.9 40 40 40 40-17.9 40-40-17.9-40-40-40zm0 60c-11 0-20-9-20-20s9-20 20-20 20 9 20 20-9 20-20 20z"/>
    <path d="M440 240H360c-33.1 0-60 26.9-60 60v20h200v-20c0-33.1-26.9-60-60-60zm-80 60c0-22.1 17.9-40 40-40s40 17.9 40 40h-80z"/>
  </g>
  <text x="400" y="100" text-anchor="middle" font-family="Arial" font-size="24" fill="#666">Image non disponible</text>
</svg> 